<?xml version="1.0" encoding="UTF-8" standalone="no"?>
<!-- Created with Inkscape (http://www.inkscape.org/) -->

<svg
   width="500"
   height="500"
   viewBox="0 0 500 500"
   version="1.1"
   id="svg5"
   sodipodi:docname="linuxmint.svg"
   inkscape:version="1.3 (1:1.3+202307231459+0e150ed6c4)"
   inkscape:export-filename="linuxmint.png"
   inkscape:export-xdpi="96"
   inkscape:export-ydpi="96"
   xmlns:inkscape="http://www.inkscape.org/namespaces/inkscape"
   xmlns:sodipodi="http://sodipodi.sourceforge.net/DTD/sodipodi-0.dtd"
   xmlns="http://www.w3.org/2000/svg"
   xmlns:svg="http://www.w3.org/2000/svg"
   xmlns:rdf="http://www.w3.org/1999/02/22-rdf-syntax-ns#"
   xmlns:cc="http://creativecommons.org/ns#"
   xmlns:dc="http://purl.org/dc/elements/1.1/">
  <metadata
     id="metadata19">
    <rdf:RDF>
      <cc:Work
         rdf:about="">
        <dc:format>image/svg+xml</dc:format>
        <dc:type
           rdf:resource="http://purl.org/dc/dcmitype/StillImage" />
      </cc:Work>
    </rdf:RDF>
  </metadata>
  <sodipodi:namedview
     pagecolor="#ffffff"
     bordercolor="#666666"
     borderopacity="1"
     objecttolerance="10"
     gridtolerance="10"
     guidetolerance="10"
     inkscape:pageopacity="0"
     inkscape:pageshadow="2"
     inkscape:window-width="1366"
     inkscape:window-height="736"
     id="namedview17"
     showgrid="false"
     inkscape:zoom="0.7"
     inkscape:cx="165"
     inkscape:cy="158.57143"
     inkscape:window-x="0"
     inkscape:window-y="32"
     inkscape:window-maximized="1"
     inkscape:current-layer="svg5"
     inkscape:showpageshadow="2"
     inkscape:pagecheckerboard="0"
     inkscape:deskcolor="#d1d1d1" />
  <defs
     id="defs2" />
  <circle
     style="fill:#69b53f;fill-opacity:1;stroke:#ffffff;stroke-width:39.0625;stroke-miterlimit:4;stroke-dasharray:none;stroke-opacity:1"
     id="path32"
     cx="250"
     cy="250"
     r="230.46875" />
  <path
     style="color:#000000;fill:#f8f8f8;fill-opacity:1;stroke:#ffffff;stroke-width:0;stroke-opacity:1;-inkscape-stroke:none"
     d="m 113.28126,123.04688 v 175.78126 c 0,42.91586 35.20914,78.125 78.125,78.125 h 117.18751 c 42.91586,0 78.125,-35.20914 78.125,-78.125 v -97.65625 c 0,-32.12907 -26.46469,-58.59376 -58.59375,-58.59376 -15.00965,0 -28.64606,5.93286 -39.0625,15.36372 -10.41645,-9.43086 -24.05285,-15.36372 -39.0625,-15.36372 -32.12906,0 -58.59376,26.46469 -58.59376,58.59376 v 97.65625 h 39.06251 v -97.65625 c 0,-11.01813 8.51312,-19.53126 19.53125,-19.53126 11.01812,0 19.53125,8.51313 19.53125,19.53126 v 97.65625 h 39.0625 v -97.65625 c 0,-11.01813 8.51312,-19.53126 19.53125,-19.53126 11.01812,0 19.53125,8.51313 19.53125,19.53126 v 97.65625 c 0,21.80497 -17.25754,39.0625 -39.0625,39.0625 H 191.40626 c -21.80496,0 -39.0625,-17.25753 -39.0625,-39.0625 V 123.04688 Z"
     id="path4193" />
</svg>
