<?xml version="1.0" encoding="UTF-8" standalone="no"?>
<!-- Created with Inkscape (http://www.inkscape.org/) -->

<svg
   width="210mm"
   height="297mm"
   viewBox="0 0 210 297"
   version="1.1"
   id="svg1"
   xml:space="preserve"
   inkscape:version="1.3 (1:1.3+202307231459+0e150ed6c4)"
   sodipodi:docname="inomeado.svg"
   xmlns:inkscape="http://www.inkscape.org/namespaces/inkscape"
   xmlns:sodipodi="http://sodipodi.sourceforge.net/DTD/sodipodi-0.dtd"
   xmlns="http://www.w3.org/2000/svg"
   xmlns:svg="http://www.w3.org/2000/svg"><sodipodi:namedview
     id="namedview1"
     pagecolor="#ffffff"
     bordercolor="#666666"
     borderopacity="1.0"
     inkscape:showpageshadow="2"
     inkscape:pageopacity="0.0"
     inkscape:pagecheckerboard="0"
     inkscape:deskcolor="#d1d1d1"
     inkscape:document-units="mm"
     showguides="true"
     inkscape:zoom="0.46680696"
     inkscape:cx="260.2789"
     inkscape:cy="484.14017"
     inkscape:window-width="1366"
     inkscape:window-height="736"
     inkscape:window-x="0"
     inkscape:window-y="32"
     inkscape:window-maximized="1"
     inkscape:current-layer="layer1" /><defs
     id="defs1" /><g
     inkscape:label="Camada 1"
     inkscape:groupmode="layer"
     id="layer1"><rect
       style="fill:#000000;fill-opacity:1;stroke:none;stroke-width:2.25885;stroke-linecap:round;stroke-linejoin:round;stroke-dasharray:6.77659, 6.77659;paint-order:stroke fill markers"
       id="rect11"
       width="194.35555"
       height="194.35555"
       x="7.1939268"
       y="41.954044"
       inkscape:export-filename="rect11.png"
       inkscape:export-xdpi="96"
       inkscape:export-ydpi="96" /><circle
       style="fill:#ffffff;fill-opacity:1;stroke:none;stroke-width:1.40931;stroke-linecap:round;stroke-linejoin:round;stroke-dasharray:4.22795, 4.22795;paint-order:stroke fill markers"
       id="path9"
       cx="104.3717"
       cy="139.13181"
       r="97.177773" /><g
       id="g49"
       transform="matrix(1.1976208,0,0,0.99993552,-24.033622,0.00848837)"><path
         style="fill:#000000;fill-opacity:1;stroke:#000000;stroke-width:0.474207px;stroke-linecap:butt;stroke-linejoin:miter;stroke-opacity:1"
         d="m 74.299547,112.27269 c 0,0 8.786413,-15.09689 5.711287,-31.710773 -3.075126,-16.613902 4.416183,-31.674265 12.983686,-36.020072 8.5675,-4.345808 23.19857,-2.660815 30.33504,5.029669 7.13647,7.690485 6.20128,26.549307 9.9773,41.134236 3.77602,14.58491 33.03133,51.25972 35.18629,61.62273 2.15495,10.36303 -5.36718,30.36114 -5.36718,30.36114 0,0 -29.98448,33.66481 -37.70259,35.74432 -7.71813,2.07952 -35.849054,4.32394 -44.274662,0.041 -8.425608,-4.2829 -33.885837,-41.27196 -33.048411,-50.51344 0.837426,-9.24145 26.19924,-55.68887 26.19924,-55.68887 z"
         id="path48" /><path
         style="fill:#ffffff;fill-opacity:1;stroke:none;stroke-width:0.474207px;stroke-linecap:butt;stroke-linejoin:miter;stroke-opacity:1"
         d="m 74.361166,203.73415 c -0.788694,-0.76629 12.50581,-6.34891 8.468713,-11.60277 C 74.116681,180.79206 53.212433,174.34041 60.931309,153.747 68.650184,133.15359 86.017936,119.77777 85.620677,102.81418 85.223418,85.850583 116.18473,92.386965 116.18473,92.386965 c 0,0 5.6919,31.785945 13.21278,41.202685 7.5209,9.41676 16.13713,31.9582 11.62026,47.64171 -11.15201,38.72211 -67.065531,32.73684 -66.656604,22.50279 z"
         id="path47"
         sodipodi:nodetypes="cssscssc" /></g><path
       style="fill:#ef9300;fill-opacity:1;stroke:none;stroke-width:4.87417;stroke-linecap:butt;stroke-linejoin:miter;stroke-dasharray:none;stroke-opacity:1"
       d="m 57.461312,190.12577 c -4.618873,-8.7162 -8.179152,-20.23228 -13.180623,-18.16994 -4.726481,2.27599 -16.784759,13.1598 -24.637392,14.60909 -4.760266,0.66318 -7.871506,2.9401 -6.987678,8.66386 1.675228,7.4596 2.670984,11.18156 -2.7133723,19.91448 -2.232359,5.12741 -0.579714,9.03923 7.4253353,9.69795 8.005032,0.65877 30.297474,5.50372 38.144408,6.53358 6.37047,0.8361 16.660033,-3.08547 18.702751,-10.20721 1.937798,-9.63495 -11.592176,-21.16362 -16.753429,-31.04181 z"
       id="path7"
       sodipodi:nodetypes="scccccccs" /><path
       style="fill:#ef9300;fill-opacity:1;stroke:none;stroke-width:4.87417;stroke-linecap:butt;stroke-linejoin:miter;stroke-dasharray:none;stroke-opacity:1"
       d="m 137.15078,196.73967 c 0.83992,-9.82858 -0.38995,-21.81954 5.01972,-21.87871 5.24019,0.24501 20.59582,5.54256 28.38942,3.80355 4.64019,-1.25239 8.39432,-0.37446 9.82067,5.23875 1.37731,7.52031 1.91735,11.33513 10.28957,17.26479 4.06073,3.84505 4.07055,8.09161 -3.03843,11.83021 -7.10896,3.73861 -25.72802,16.9203 -32.54628,20.93856 -5.5353,3.26226 -16.53895,3.67965 -21.20553,-2.0749 -5.55344,-8.10843 2.38649,-24.01212 3.27086,-35.12225 z"
       id="path43"
       sodipodi:nodetypes="scccccccs" /><ellipse
       style="fill:#ffffff;fill-opacity:1;stroke:none;stroke-width:21.9273;stroke-linecap:round;stroke-linejoin:round;stroke-dasharray:none;stroke-opacity:1;paint-order:stroke fill markers"
       id="ellipse46"
       cx="65.42804"
       cy="89.042686"
       rx="6.6597795"
       ry="11.764586"
       transform="matrix(0.99047741,-0.13767537,0.20057759,0.97967782,0,0)" /><ellipse
       style="fill:#0e0e0e;fill-opacity:1;stroke:none;stroke-width:9.6776;stroke-linecap:round;stroke-linejoin:round;stroke-dasharray:none;stroke-opacity:1;paint-order:stroke fill markers"
       id="path45"
       cx="56.943501"
       cy="99.855591"
       rx="3.0218372"
       ry="5.050437"
       transform="matrix(0.97015624,-0.24248065,0.27609104,0.96113149,0,0)" /><ellipse
       style="fill:#fdfdfd;fill-opacity:1;stroke:none;stroke-width:27.4865;stroke-linecap:round;stroke-linejoin:round;stroke-dasharray:none;stroke-opacity:1;paint-order:stroke fill markers"
       id="ellipse47"
       cx="113.97733"
       cy="86.253571"
       rx="9.7469339"
       ry="12.630967"
       transform="matrix(0.99776254,-0.06685738,-0.07839585,0.99692231,0,0)" /><ellipse
       style="fill:#0e0e0e;fill-opacity:1;stroke:none;stroke-width:11.2937;stroke-linecap:round;stroke-linejoin:round;stroke-dasharray:none;stroke-opacity:1;paint-order:stroke fill markers"
       id="ellipse45"
       cx="125.86375"
       cy="49.43935"
       rx="3.5209441"
       ry="5.9031239"
       transform="matrix(0.95978267,0.28074405,-0.3186551,0.94787073,0,0)" /><path
       style="fill:#ef9300;fill-opacity:1;stroke:none;stroke-width:0.49104px;stroke-linecap:butt;stroke-linejoin:miter;stroke-opacity:1"
       d="m 74.980076,94.289448 c -0.185242,-2.559221 4.853188,-3.535483 8.563091,-6.128868 3.102945,-2.169058 4.334234,-4.875698 7.719617,-5.345105 3.242742,-0.08281 6.836045,3.37411 11.672756,5.14279 5.90064,2.15773 13.7038,0.924795 13.50532,6.324239 -0.11337,2.803872 -4.76458,5.346637 -9.79099,8.339236 -5.35692,3.1894 -8.039215,5.80431 -14.334133,5.93275 -4.448567,-0.29828 -7.524898,-3.29289 -11.004401,-6.57708 -2.425005,-2.288902 -5.904702,-5.293592 -6.33126,-7.687962 z"
       id="path44"
       sodipodi:nodetypes="cscscscsc" /></g></svg>
