<?xml version="1.0" encoding="UTF-8" standalone="no"?>
<!-- Created with Inkscape (http://www.inkscape.org/) -->

<svg
   width="500"
   height="500"
   viewBox="0 0 500 500"
   version="1.1"
   id="svg5"
   sodipodi:docname="linuxmint.svg"
   inkscape:version="1.3 (1:1.3+202307231459+0e150ed6c4)"
   inkscape:export-filename="linuxmint.png"
   inkscape:export-xdpi="96"
   inkscape:export-ydpi="96"
   xmlns:inkscape="http://www.inkscape.org/namespaces/inkscape"
   xmlns:sodipodi="http://sodipodi.sourceforge.net/DTD/sodipodi-0.dtd"
   xmlns="http://www.w3.org/2000/svg"
   xmlns:svg="http://www.w3.org/2000/svg"
   xmlns:rdf="http://www.w3.org/1999/02/22-rdf-syntax-ns#"
   xmlns:cc="http://creativecommons.org/ns#"
   xmlns:dc="http://purl.org/dc/elements/1.1/">
  <metadata
     id="metadata19">
    <rdf:RDF>
      <cc:Work
         rdf:about="">
        <dc:format>image/svg+xml</dc:format>
        <dc:type
           rdf:resource="http://purl.org/dc/dcmitype/StillImage" />
      </cc:Work>
    </rdf:RDF>
  </metadata>
  <sodipodi:namedview
     pagecolor="#ffffff"
     bordercolor="#666666"
     borderopacity="1"
     objecttolerance="10"
     gridtolerance="10"
     guidetolerance="10"
     inkscape:pageopacity="0"
     inkscape:pageshadow="2"
     inkscape:window-width="1366"
     inkscape:window-height="736"
     id="namedview17"
     showgrid="false"
     inkscape:zoom="0.7"
     inkscape:cx="163.57143"
     inkscape:cy="158.57143"
     inkscape:window-x="0"
     inkscape:window-y="32"
     inkscape:window-maximized="1"
     inkscape:current-layer="svg5"
     inkscape:showpageshadow="2"
     inkscape:pagecheckerboard="0"
     inkscape:deskcolor="#d1d1d1" />
  <defs
     id="defs2" />
  <rect
     style="fill:#000000;stroke-width:4.72835;stroke-linecap:round;stroke-linejoin:round;stroke-dasharray:14.185, 14.185;paint-order:stroke fill markers;fill-opacity:1"
     id="rect1"
     width="500"
     height="500"
     x="0"
     y="0" />
  <g
     id="layer3"
     style="stroke:#ffffff;stroke-opacity:1"
     transform="scale(1.953125)">
    <circle
       style="fill:#69b53f;fill-opacity:1;stroke:#ffffff;stroke-width:20;stroke-miterlimit:4;stroke-dasharray:none;stroke-opacity:1"
       id="path32"
       cx="128"
       cy="128"
       r="118" />
    <path
       style="color:#000000;fill:#f8f8f8;fill-opacity:1;stroke:#ffffff;stroke-width:0;stroke-opacity:1;-inkscape-stroke:none"
       d="m 58.000005,63.000005 v 90.000005 c 0,21.97292 18.02708,40 40,40 h 60.000005 c 21.97292,0 40,-18.02708 40,-40 v -50 c 0,-16.450085 -13.54992,-30.000005 -30,-30.000005 -7.68494,0 -14.66678,3.03762 -20,7.86622 -5.33322,-4.8286 -12.31506,-7.86622 -20,-7.86622 -16.45008,0 -30.000005,13.54992 -30.000005,30.000005 v 50 h 20.000005 v -50 c 0,-5.641285 4.35872,-10.000005 10,-10.000005 5.64128,0 10,4.35872 10,10.000005 v 50 h 20 v -50 c 0,-5.641285 4.35872,-10.000005 10,-10.000005 5.64128,0 10,4.35872 10,10.000005 v 50 c 0,11.16414 -8.83586,20 -20,20 H 98.000005 c -11.16414,0 -20,-8.83586 -20,-20 V 63.000005 Z"
       id="path4193" />
  </g>
</svg>
