<?xml version="1.0" encoding="UTF-8" standalone="no"?>
<!-- Created with Inkscape (http://www.inkscape.org/) -->

<svg
   width="500"
   height="500"
   viewBox="0 0 132.29166 132.29167"
   version="1.1"
   id="svg1"
   xml:space="preserve"
   inkscape:version="1.3 (1:1.3+202307231459+0e150ed6c4)"
   sodipodi:docname="linux.svg"
   inkscape:export-filename="linux.png"
   inkscape:export-xdpi="96"
   inkscape:export-ydpi="96"
   xmlns:inkscape="http://www.inkscape.org/namespaces/inkscape"
   xmlns:sodipodi="http://sodipodi.sourceforge.net/DTD/sodipodi-0.dtd"
   xmlns="http://www.w3.org/2000/svg"
   xmlns:svg="http://www.w3.org/2000/svg"><sodipodi:namedview
     id="namedview1"
     pagecolor="#ffffff"
     bordercolor="#666666"
     borderopacity="1.0"
     inkscape:showpageshadow="2"
     inkscape:pageopacity="0.0"
     inkscape:pagecheckerboard="0"
     inkscape:deskcolor="#d1d1d1"
     inkscape:document-units="px"
     showguides="true"
     inkscape:zoom="0.46680696"
     inkscape:cx="262.42111"
     inkscape:cy="484.14017"
     inkscape:window-width="1366"
     inkscape:window-height="736"
     inkscape:window-x="0"
     inkscape:window-y="32"
     inkscape:window-maximized="1"
     inkscape:current-layer="layer1" /><defs
     id="defs1" /><g
     inkscape:label="Camada 1"
     inkscape:groupmode="layer"
     id="layer1"><circle
       style="fill:#ffffff;fill-opacity:1;stroke:none;stroke-width:0.959273;stroke-linecap:round;stroke-linejoin:round;stroke-dasharray:2.87783, 2.87783;paint-order:stroke fill markers"
       id="path9"
       cx="66.145828"
       cy="66.145828"
       r="66.145828" /><g
       id="g49"
       transform="matrix(0.81518254,0,0,0.68062443,-21.255601,-28.551003)"><path
         style="fill:#000000;fill-opacity:1;stroke:#000000;stroke-width:0.474207px;stroke-linecap:butt;stroke-linejoin:miter;stroke-opacity:1"
         d="m 74.299547,112.27269 c 0,0 8.786413,-15.09689 5.711287,-31.710773 -3.075126,-16.613902 4.416183,-31.674265 12.983686,-36.020072 8.5675,-4.345808 23.19857,-2.660815 30.33504,5.029669 7.13647,7.690485 6.20128,26.549307 9.9773,41.134236 3.77602,14.58491 33.03133,51.25972 35.18629,61.62273 2.15495,10.36303 -5.36718,30.36114 -5.36718,30.36114 0,0 -29.98448,33.66481 -37.70259,35.74432 -7.71813,2.07952 -35.849054,4.32394 -44.274662,0.041 -8.425608,-4.2829 -33.885837,-41.27196 -33.048411,-50.51344 0.837426,-9.24145 26.19924,-55.68887 26.19924,-55.68887 z"
         id="path48" /><path
         style="fill:#ffffff;fill-opacity:1;stroke:none;stroke-width:0.474207px;stroke-linecap:butt;stroke-linejoin:miter;stroke-opacity:1"
         d="m 74.361166,203.73415 c -0.788694,-0.76629 12.50581,-6.34891 8.468713,-11.60277 C 74.116681,180.79206 53.212433,174.34041 60.931309,153.747 68.650184,133.15359 86.017936,119.77777 85.620677,102.81418 85.223418,85.850583 116.18473,92.386965 116.18473,92.386965 c 0,0 5.6919,31.785945 13.21278,41.202685 7.5209,9.41676 16.13713,31.9582 11.62026,47.64171 -11.15201,38.72211 -67.065531,32.73684 -66.656604,22.50279 z"
         id="path47"
         sodipodi:nodetypes="cssscssc" /></g><path
       style="fill:#ef9300;fill-opacity:1;stroke:none;stroke-width:3.31769;stroke-linecap:butt;stroke-linejoin:miter;stroke-dasharray:none;stroke-opacity:1"
       d="M 34.215419,100.85581 C 31.071498,94.922966 28.648129,87.084335 25.243786,88.488105 22.02662,90.037299 13.818932,97.445564 8.4738938,98.43205 c -3.2401623,0.451405 -5.3578848,2.00123 -4.7562911,5.89721 1.1402747,5.07752 1.8180542,7.61094 -1.8469065,13.55516 -1.51949609,3.49007 -0.394593,6.15272 5.0541905,6.60109 5.4487713,0.4484 20.6225303,3.74621 25.9636903,4.4472 4.336177,0.56911 11.339956,-2.10018 12.73037,-6.94773 1.318998,-6.5582 -7.890427,-14.4054 -11.403528,-21.12917 z"
       id="path7"
       sodipodi:nodetypes="scccccccs" /><path
       style="fill:#ef9300;fill-opacity:1;stroke:none;stroke-width:3.31769;stroke-linecap:butt;stroke-linejoin:miter;stroke-dasharray:none;stroke-opacity:1"
       d="m 88.457515,105.35768 c 0.571707,-6.690003 -0.265427,-14.85187 3.416764,-14.892145 3.566832,0.16677 14.018921,3.772645 19.323781,2.588956 3.15843,-0.852462 5.71375,-0.254883 6.68462,3.565851 0.93749,5.118838 1.30508,7.715468 7.00378,11.751598 2.76401,2.6172 2.7707,5.5077 -2.06816,8.05245 -4.83885,2.54475 -17.51225,11.51711 -22.15322,14.25221 -3.767707,2.22052 -11.257543,2.50462 -14.433936,-1.41232 -3.780051,-5.51915 1.624408,-16.34429 2.226371,-23.9066 z"
       id="path43"
       sodipodi:nodetypes="scccccccs" /><ellipse
       style="fill:#ffffff;fill-opacity:1;stroke:none;stroke-width:14.9252;stroke-linecap:round;stroke-linejoin:round;stroke-dasharray:none;stroke-opacity:1;paint-order:stroke fill markers"
       id="ellipse46"
       cx="45.467377"
       cy="31.590439"
       rx="4.5331011"
       ry="8.007781"
       transform="matrix(0.99047741,-0.13767537,0.20057759,0.97967782,0,0)" /><ellipse
       style="fill:#0e0e0e;fill-opacity:1;stroke:none;stroke-width:6.58724;stroke-linecap:round;stroke-linejoin:round;stroke-dasharray:none;stroke-opacity:1;paint-order:stroke fill markers"
       id="path45"
       cx="41.939484"
       cy="39.059143"
       rx="2.0568688"
       ry="3.4376724"
       transform="matrix(0.97015624,-0.24248065,0.27609103,0.96113149,0,0)" /><ellipse
       style="fill:#fdfdfd;fill-opacity:1;stroke:none;stroke-width:18.7092;stroke-linecap:round;stroke-linejoin:round;stroke-dasharray:none;stroke-opacity:1;paint-order:stroke fill markers"
       id="ellipse47"
       cx="70.384506"
       cy="29.582523"
       rx="6.634429"
       ry="8.5974989"
       transform="matrix(0.99776254,-0.06685738,-0.07839585,0.99692231,0,0)" /><ellipse
       style="fill:#0e0e0e;fill-opacity:1;stroke:none;stroke-width:7.68726;stroke-linecap:round;stroke-linejoin:round;stroke-dasharray:none;stroke-opacity:1;paint-order:stroke fill markers"
       id="ellipse45"
       cx="71.919426"
       cy="7.5976367"
       rx="2.396595"
       ry="4.0180693"
       transform="matrix(0.95978267,0.28074405,-0.3186551,0.94787073,0,0)" /><path
       style="fill:#ef9300;fill-opacity:1;stroke:none;stroke-width:0.334235px;stroke-linecap:butt;stroke-linejoin:miter;stroke-opacity:1"
       d="m 46.139886,35.623059 c -0.126088,-1.74198 3.303411,-2.406491 5.828625,-4.171726 2.112076,-1.476409 2.950176,-3.318733 5.254499,-3.638244 2.207231,-0.05637 4.653079,2.29665 7.945275,3.500534 4.016379,1.468699 9.327742,0.629479 9.192643,4.30471 -0.07717,1.908506 -3.243098,3.639286 -6.664416,5.676253 -3.646286,2.170924 -5.472039,3.95081 -9.756791,4.038235 -3.027998,-0.203029 -5.121959,-2.241366 -7.490347,-4.47681 -1.650624,-1.557983 -4.019143,-3.60318 -4.309488,-5.232952 z"
       id="path44"
       sodipodi:nodetypes="cscscscsc" /></g></svg>
