<?xml version="1.0" encoding="UTF-8" standalone="no"?>
<!-- Created with Inkscape (http://www.inkscape.org/) -->

<svg
   width="500"
   height="500"
   viewBox="0 0 500 500"
   version="1.1"
   id="svg5"
   sodipodi:docname="ubuntu.svg"
   inkscape:version="1.3 (1:1.3+202307231459+0e150ed6c4)"
   inkscape:export-filename="ubuntu.png"
   inkscape:export-xdpi="96"
   inkscape:export-ydpi="96"
   xml:space="preserve"
   xmlns:inkscape="http://www.inkscape.org/namespaces/inkscape"
   xmlns:sodipodi="http://sodipodi.sourceforge.net/DTD/sodipodi-0.dtd"
   xmlns="http://www.w3.org/2000/svg"
   xmlns:svg="http://www.w3.org/2000/svg"
   xmlns:rdf="http://www.w3.org/1999/02/22-rdf-syntax-ns#"
   xmlns:cc="http://creativecommons.org/ns#"
   xmlns:dc="http://purl.org/dc/elements/1.1/"><metadata
     id="metadata19"><rdf:RDF><cc:Work
         rdf:about=""><dc:format>image/svg+xml</dc:format><dc:type
           rdf:resource="http://purl.org/dc/dcmitype/StillImage" /></cc:Work></rdf:RDF></metadata><sodipodi:namedview
     pagecolor="#ffffff"
     bordercolor="#666666"
     borderopacity="1"
     objecttolerance="10"
     gridtolerance="10"
     guidetolerance="10"
     inkscape:pageopacity="0"
     inkscape:pageshadow="2"
     inkscape:window-width="1366"
     inkscape:window-height="736"
     id="namedview17"
     showgrid="false"
     inkscape:zoom="0.7"
     inkscape:cx="246.42857"
     inkscape:cy="238.57143"
     inkscape:window-x="0"
     inkscape:window-y="32"
     inkscape:window-maximized="1"
     inkscape:current-layer="svg5"
     inkscape:showpageshadow="2"
     inkscape:pagecheckerboard="0"
     inkscape:deskcolor="#d1d1d1" /><defs
     id="defs2" /><g
     id="g6"
     transform="matrix(1.4118571,0,0,1.4118571,-84.428866,-110.11753)"><circle
       style="fill:#e95420;fill-opacity:1;stroke:none;stroke-width:1.5;stroke-linecap:round;stroke-linejoin:round;stroke-dasharray:4.49999, 4.49999;paint-order:stroke fill markers"
       id="circle3"
       cx="309.41693"
       cy="373.43484"
       r="52.485821" /><path
       id="path3"
       style="fill:#e95420;fill-opacity:1;stroke:none;stroke-width:2.10265;stroke-linecap:round;stroke-linejoin:round;stroke-dasharray:6.30792, 6.30792;paint-order:stroke fill markers"
       d="m 250,86.056641 a 163.94313,163.94313 0 0 0 -143.51562,85.560549 74.657097,74.657097 0 0 1 5.80078,-0.6543 74.657097,74.657097 0 0 1 38.34961,10.63281 121.09223,121.09223 0 0 1 94.67578,-52.27734 A 74.657097,74.657097 0 0 1 264.20703,86.708984 163.94313,163.94313 0 0 0 250,86.056641 Z M 388.66211,162.62695 A 74.657097,74.657097 0 0 1 359.34375,199.05273 121.09223,121.09223 0 0 1 371.0918,250 121.09223,121.09223 0 0 1 353.18164,312.95703 74.657097,74.657097 0 0 1 380.14648,349.625 163.94313,163.94313 0 0 0 413.94336,250 163.94313,163.94313 0 0 0 388.66211,162.62695 Z M 146.13086,311.97266 a 74.657097,74.657097 0 0 1 -33.8457,8.30468 74.657097,74.657097 0 0 1 -10.89844,-1.22656 163.94313,163.94313 0 0 0 145.73633,94.6875 74.657097,74.657097 0 0 1 -12.36328,-40.30273 74.657097,74.657097 0 0 1 0.41015,-3.64063 121.09223,121.09223 0 0 1 -89.03906,-57.82226 z" /><circle
       style="fill:#e95420;fill-opacity:1;stroke:none;stroke-width:1.5;stroke-linecap:round;stroke-linejoin:round;stroke-dasharray:4.49999, 4.49999;paint-order:stroke fill markers"
       id="path2"
       cx="319.1358"
       cy="136.69827"
       r="52.485821" /><circle
       style="fill:#e95420;fill-opacity:1;stroke:none;stroke-width:1.5;stroke-linecap:round;stroke-linejoin:round;stroke-dasharray:4.49999, 4.49999;paint-order:stroke fill markers"
       id="circle2"
       cx="112.28568"
       cy="245.62048"
       r="52.485821" /></g></svg>
