<?xml version="1.0" encoding="UTF-8" standalone="no"?>
<!-- Created with Inkscape (http://www.inkscape.org/) -->

<svg
   width="500"
   height="500"
   viewBox="0 0 500 500"
   version="1.1"
   id="svg5"
   sodipodi:docname="ubuntu.svg"
   inkscape:version="1.3 (1:1.3+202307231459+0e150ed6c4)"
   inkscape:export-filename="ubuntu.png"
   inkscape:export-xdpi="96"
   inkscape:export-ydpi="96"
   xml:space="preserve"
   xmlns:inkscape="http://www.inkscape.org/namespaces/inkscape"
   xmlns:sodipodi="http://sodipodi.sourceforge.net/DTD/sodipodi-0.dtd"
   xmlns="http://www.w3.org/2000/svg"
   xmlns:svg="http://www.w3.org/2000/svg"
   xmlns:rdf="http://www.w3.org/1999/02/22-rdf-syntax-ns#"
   xmlns:cc="http://creativecommons.org/ns#"
   xmlns:dc="http://purl.org/dc/elements/1.1/"><metadata
     id="metadata19"><rdf:RDF><cc:Work
         rdf:about=""><dc:format>image/svg+xml</dc:format><dc:type
           rdf:resource="http://purl.org/dc/dcmitype/StillImage" /></cc:Work></rdf:RDF></metadata><sodipodi:namedview
     pagecolor="#ffffff"
     bordercolor="#666666"
     borderopacity="1"
     objecttolerance="10"
     gridtolerance="10"
     guidetolerance="10"
     inkscape:pageopacity="0"
     inkscape:pageshadow="2"
     inkscape:window-width="1366"
     inkscape:window-height="736"
     id="namedview17"
     showgrid="false"
     inkscape:zoom="0.7"
     inkscape:cx="265"
     inkscape:cy="291.42857"
     inkscape:window-x="0"
     inkscape:window-y="32"
     inkscape:window-maximized="1"
     inkscape:current-layer="svg5"
     inkscape:showpageshadow="2"
     inkscape:pagecheckerboard="0"
     inkscape:deskcolor="#d1d1d1" /><defs
     id="defs2" /><rect
     style="fill:#000000;stroke-width:2.44498;stroke-linecap:round;stroke-linejoin:round;stroke-dasharray:7.33492, 7.33492;paint-order:stroke fill markers"
     id="rect1"
     width="500"
     height="500"
     x="0"
     y="0" /><path
     id="path1"
     style="fill:#e95420;fill-opacity:1;stroke:none;stroke-width:2.17469;stroke-linecap:round;stroke-linejoin:round;stroke-dasharray:6.52404, 6.52404;paint-order:stroke fill markers"
     d="M 250 0 A 250 250 0 0 0 0 250 A 250 250 0 0 0 250 500 A 250 250 0 0 0 500 250 A 250 250 0 0 0 250 0 z M 250 16.310547 A 233.68908 233.68908 0 0 1 483.68945 250 A 233.68908 233.68908 0 0 1 250 483.68945 A 233.68908 233.68908 0 0 1 16.310547 250 A 233.68908 233.68908 0 0 1 250 16.310547 z " /><circle
     style="fill:#e95420;fill-opacity:1;stroke:none;stroke-width:1.5;stroke-linecap:round;stroke-linejoin:round;stroke-dasharray:4.49999, 4.49999;paint-order:stroke fill markers"
     id="circle3"
     cx="309.41693"
     cy="373.43484"
     r="52.485821" /><path
     id="path3"
     style="fill:#e95420;fill-opacity:1;stroke:none;stroke-width:2.10265;stroke-linecap:round;stroke-linejoin:round;stroke-dasharray:6.30792, 6.30792;paint-order:stroke fill markers"
     d="M 250 86.056641 A 163.94313 163.94313 0 0 0 106.48438 171.61719 A 74.657097 74.657097 0 0 1 112.28516 170.96289 A 74.657097 74.657097 0 0 1 150.63477 181.5957 A 121.09223 121.09223 0 0 1 245.31055 129.31836 A 74.657097 74.657097 0 0 1 264.20703 86.708984 A 163.94313 163.94313 0 0 0 250 86.056641 z M 388.66211 162.62695 A 74.657097 74.657097 0 0 1 359.34375 199.05273 A 121.09223 121.09223 0 0 1 371.0918 250 A 121.09223 121.09223 0 0 1 353.18164 312.95703 A 74.657097 74.657097 0 0 1 380.14648 349.625 A 163.94313 163.94313 0 0 0 413.94336 250 A 163.94313 163.94313 0 0 0 388.66211 162.62695 z M 146.13086 311.97266 A 74.657097 74.657097 0 0 1 112.28516 320.27734 A 74.657097 74.657097 0 0 1 101.38672 319.05078 A 163.94313 163.94313 0 0 0 247.12305 413.73828 A 74.657097 74.657097 0 0 1 234.75977 373.43555 A 74.657097 74.657097 0 0 1 235.16992 369.79492 A 121.09223 121.09223 0 0 1 146.13086 311.97266 z " /><circle
     style="fill:#e95420;fill-opacity:1;stroke:none;stroke-width:1.5;stroke-linecap:round;stroke-linejoin:round;stroke-dasharray:4.49999, 4.49999;paint-order:stroke fill markers"
     id="path2"
     cx="319.1358"
     cy="136.69827"
     r="52.485821" /><circle
     style="fill:#e95420;fill-opacity:1;stroke:none;stroke-width:1.5;stroke-linecap:round;stroke-linejoin:round;stroke-dasharray:4.49999, 4.49999;paint-order:stroke fill markers"
     id="circle2"
     cx="112.28568"
     cy="245.62048"
     r="52.485821" /></svg>
